# xmcd
#
# Track frame offsets:
#	150
#	13348
#	29051
#	42609
#	55738
#	67272
#	80207
#	96236
#	107612
#	124540
#	137393
#	157269
#	172976
#	187282
#	201829
#	217250
#	231821
#	242636
#	257436
#	268659
#	280955
#	302115
#	314697
#	328947
# Disc length: 4535 seconds
# Revision: 1
# Processed by: cddbd v1.5.1PL0 Copyright (c) Steve Scherf et al.
#
# Submitted via: libkcddb 0.21
#
DISCID=7d11b518
DTITLE=Paquera de Jerez - Paquera de Jerez
DYEAR=1960
DGENRE=Folklore
TTITLE0=Esta Rubia Panaera
TTITLE1=
TTITLE2=
TTITLE3=
TTITLE4=
TTITLE5=
TTITLE6=
TTITLE7=
TTITLE8=
TTITLE9=
TTITLE10=
TTITLE11=
TTITLE12=
TTITLE13=
TTITLE14=
TTITLE15=
TTITLE16=
TTITLE17=
TTITLE18=
TTITLE19=
TTITLE20=
TTITLE21=
TTITLE22=
TTITLE23=
EXTD=
EXTT0=
EXTT1=
EXTT2=
EXTT3=
EXTT4=
EXTT5=
EXTT6=
EXTT7=
EXTT8=
EXTT9=
EXTT10=
EXTT11=
EXTT12=
EXTT13=
EXTT14=
EXTT15=
EXTT16=
EXTT17=
EXTT18=
EXTT19=
EXTT20=
EXTT21=
EXTT22=
EXTT23=
PLAYORDER=
